<svg xmlns="http://www.w3.org/2000/svg" width="356pt" height="178pt" viewBox="0 0 356 178"><path d="M179.094 89.758l6.937 11.273 10.91 13.809c.09-.067.176-.133.262-.203 7.016-5.575 12.813-12.34 16.578-20.516 3.61-7.84 5.004-16.258 4.739-24.851-.797-25.72-20.504-47.286-45.852-51.063-14.227-2.117-27.176.992-39.063 9.031-1.12.758-2.132 1.465-3.566 1.489-5.379.085-10.758.046-16.137.046h-1.57l-.734-1.386c-.153-.285-.301-.57-.45-.852l-.972-1.836 1.57-1.355c3.484-3.016 6.754-6.254 10.477-8.992 41.742-30.696 101.246-8.008 112 42.668 3.254 15.343 1.246 31.273-5.543 45.398-7.254 15.086-19.52 27.191-34.774 34.113-2.605 1.184-4.785.985-6.652-1.398-9.133-11.637-18.285-29.766-27.445-41.38v20.392H141.91V55.059c-5.61.004-11.219.007-16.828.007-3.8.004-7.602.141-11.398-.054-.133-.004-.438-.016-.61.02-.125.19-.265.624-.316.796-7.094 22.961 2.293 48.281 22.515 61.223 10.032 6.418 21.004 9.199 32.883 8.414 2.864-.188 4.957.781 6.57 3.172 1.997 2.957 4.258 5.761 6.395 8.617l2.656 3.547-4.39.597c-3.203.438-6.41 1.043-9.64 1.282a71.15 71.15 0 01-46.27-12.774c-13.329-9.37-22.993-22.957-27.45-38.629-5.195-18.265-3.199-36.066 5.446-52.93 1.226-2.398 3.047-3.452 5.726-3.44 19.516.066 39.031-.028 58.547.116 3.941.032 7.953.555 11.762 1.59 7.937 2.16 13 8.07 13.86 16.246.737 7.028.796 14.203.015 21.23-.875 7.845-5.438 13.118-12.29 15.669zm-5.543-34.434c-1.836-1.836-3.973-3.05-6.621-3.414-3.688-.504-7.434-.824-11.157-.824h-.168v24.098c.266.007.528.011.79.011 1.253 0 2.535-.066 3.789-.12 1.543-.063 3.097-.13 4.644-.13 2.027 0 4.41-.218 6.27-1.093 1.23-.582 2.37-1.332 3.293-2.332.308-3.704.382-7.446.066-11.141-.144-1.668-.398-3.43-.906-5.055" fill-rule="evenodd"/><path d="M310.34 121.516h-22.418v-74.73h-22.418v74.73h-22.418V24.367h82.203c8.27.098 15.316 3.063 21.149 8.89 5.828 5.833 8.742 12.88 8.742 21.15v67.109h-22.418V54.133c0-2.016-.723-3.735-2.168-5.18-1.446-1.445-3.215-2.168-5.305-2.168h-14.95v74.73M89.773 121.516H29.988c-8.172 0-15.195-2.914-21.074-8.77-5.879-5.828-8.82-12.828-8.82-21.023V85.82 72.867v-11.98-6.578c0-8.297 2.941-15.344 8.82-21.176 5.879-5.852 12.902-8.766 21.074-8.766l59.785-.148v22.566H29.988a5.82 5.82 0 01-.898.227 5.347 5.347 0 00-.895.222c-1.394.399-2.691 1.27-3.886 2.614-1.196 1.347-1.793 2.867-1.793 4.558v37.219c0 2.09.746 3.887 2.242 5.379 1.492 1.496 3.238 2.242 5.23 2.242h59.785v22.27M48.547 166.297c-1.488 1.48-2.621 2.48-3.406 3-.778.523-1.465.781-2.067.781-.734 0-1.316-.36-1.742-1.074-.43-.715-.652-1.762-.664-3.14-.848 1.378-1.766 2.425-2.762 3.14-.996.715-1.902 1.074-2.707 1.074-.879 0-1.652-.418-2.324-1.254-.672-.836-1.008-1.816-1.008-2.933 0-2.32.844-4.465 2.524-6.442 1.675-1.976 3.48-2.965 5.414-2.965.535 0 .96.078 1.261.239.305.156.641.433 1 .812l2.22-9.344c1.804-.402 3.015-.601 3.648-.601.207 0 .304.082.304.246 0 .113-.254 1.187-.765 3.219-2.055 8.132-3.082 13.047-3.082 14.746 0 .402.086.719.25.965.164.238.379.359.644.359.66 0 1.746-.867 3.262-2.605zm-11.203.828c1.011 0 1.953-.863 2.832-2.594.879-1.726 1.316-3.347 1.316-4.855 0-.613-.137-1.106-.41-1.473-.277-.363-.629-.547-1.074-.547-.961 0-1.89.906-2.793 2.711-.895 1.809-1.344 3.442-1.344 4.899 0 .574.133 1.027.399 1.363.257.332.617.496 1.074.496zm18.508-16.645c0 2.477-.914 3.715-2.743 3.715-.886 0-1.644-.27-2.273-.804a11.355 11.355 0 001.394-3.07c.817.507 1.473.761 1.965.761.559 0 1.114-.2 1.657-.602zm.32 15.817c-2.422 2.523-4.227 3.781-5.43 3.781-.66 0-1.215-.34-1.672-1.016-.453-.675-.683-1.523-.683-2.546 0-2.203.742-5.25 2.226-9.149l3.942-.82h.187l-1.55 4.848c-.641 2.007-.962 3.437-.962 4.296 0 .344.075.618.223.829.156.214.34.32.567.32.41 0 .812-.145 1.218-.434.407-.293 1.055-.922 1.934-1.886zm4.773-9.117a24.396 24.396 0 012.16-.453c.723-.122 1.157-.18 1.305-.18.102 0 .153.043.153.121 0 .16-.043.316-.13.48a4.117 4.117 0 00-.253 1.364c.011.539.324 1.27.945 2.203.617.93.93 1.793.93 2.594 0 1.578-.758 3.101-2.274 4.566-1.515 1.469-3.09 2.203-4.715 2.203a3.505 3.505 0 01-1.925-.555c-.578-.37-.868-.77-.868-1.191 0-.25.286-.719.86-1.41.574-.692.984-1.035 1.234-1.035.328 0 .625.422.887 1.27.258.847.703 1.269 1.332 1.269.637 0 1.23-.29 1.781-.88.555-.585.828-1.214.828-1.894.012-.648-.336-1.52-1.043-2.597-.707-1.086-1.175-1.993-1.402-2.727-1.203 1.93-2.723 3.91-4.563 5.938h-.359v-1.395c2.535-2.695 4.238-5.258 5.117-7.691zm19.72 9.117c-1.325 1.305-2.536 2.258-3.638 2.867-1.101.61-2.25.914-3.449.914-1.344 0-2.457-.437-3.328-1.316-.875-.875-1.309-1.992-1.309-3.344 0-2.207.805-4.25 2.41-6.125 1.602-1.875 3.344-2.809 5.215-2.809.914 0 1.668.254 2.243.766.578.516.87 1.176.87 1.996 0 .285-.054.504-.163.652-.106.141-.313.286-.61.434l-1.8.852c-.22.101-.376.156-.481.156-.145 0-.219-.102-.219-.313 0-.082.031-.351.098-.812a9.47 9.47 0 00.094-.848c0-.453-.094-.82-.285-1.101a.89.89 0 00-.77-.418c-.758 0-1.445.562-2.074 1.683-.625 1.125-.938 2.406-.938 3.84 0 1.238.297 2.223.883 2.965.59.734 1.379 1.105 2.363 1.105.836 0 1.625-.238 2.368-.718.734-.477 1.578-1.211 2.52-2.203zm13.917.008c-.523.476-1.039.808-1.531 1.004-.496.199-.887.293-1.172.293-.742 0-1.484-.293-2.215-.868-1.488 2.227-3.2 3.344-5.121 3.344-1.2 0-2.168-.45-2.914-1.355-.75-.903-1.117-2.102-1.117-3.594 0-2.371.836-4.399 2.511-6.098 1.676-1.703 3.676-2.547 6.004-2.547.88 0 1.52.094 1.93.29.41.19.66.417.758.68.09.26.137.589.137.987 0 1.954-.532 4.352-1.582 7.192.523.484 1.078.73 1.656.73.687 0 1.578-.617 2.656-1.843zm-5.102-8.743c-.16-.062-.382-.093-.668-.093-1.343 0-2.398.707-3.16 2.133-.757 1.418-1.14 3.082-1.14 4.98 0 1.055.164 1.875.5 2.457.328.59.785.879 1.379.879.73 0 1.53-.676 2.39-2.04-.98-1.23-1.472-2.562-1.472-3.983 0-1.676.722-3.122 2.171-4.333zm19.016 8.735c-.476.414-.953.707-1.437.879-.489.176-.864.265-1.137.265-.75 0-1.496-.289-2.227-.867-1.843 2.336-3.793 3.504-5.847 3.504-1.075 0-1.914-.371-2.52-1.11-.601-.75-.906-1.78-.906-3.109 0-1.464.363-3.261 1.086-5.39l1.086-3.192 4.234-.8-1.894 5.628c-.196.61-.38 1.34-.543 2.18-.164.844-.25 1.445-.25 1.813 0 .562.148 1.03.441 1.41.29.379.648.57 1.066.57.985 0 2.051-.848 3.196-2.535-.531-1.07-.797-2.14-.797-3.215 0-1.492.394-2.844 1.172-4.047.785-1.199 1.64-1.797 2.57-1.797.707 0 1.055.547 1.055 1.645 0 2.117-.848 4.57-2.547 7.348.531.46 1.082.695 1.656.695.707 0 1.555-.55 2.543-1.652zm11.598 0c-1.317 1.293-2.489 2.246-3.54 2.86-1.042.616-2.195.921-3.456.921-1.403 0-2.535-.45-3.399-1.348-.863-.906-1.297-2.093-1.297-3.558 0-2.2.762-4.184 2.282-5.961 1.52-1.774 3.203-2.664 5.054-2.664.961 0 1.735.25 2.309.746.578.492.867 1.144.867 1.953 0 2.14-2.266 3.875-6.8 5.211.413 2.031 1.491 3.05 3.234 3.05.675 0 1.328-.187 1.949-.55.613-.367 1.55-1.176 2.797-2.437zm-8.102-2.89c2.625-.739 3.938-2.11 3.938-4.106 0-.992-.36-1.485-1.075-1.485-.675 0-1.324.52-1.94 1.551-.618 1.04-.923 2.383-.923 4.04zm19.7 2.89c-2.598 2.523-4.602 3.781-6.008 3.781-.63 0-1.164-.266-1.598-.797-.438-.531-.652-1.191-.652-1.976 0-1.461.777-3.414 2.34-5.86a8.691 8.691 0 01-2.504.82c-.672 1.25-1.727 2.594-3.168 4.032h-.356v-1.395a19.92 19.92 0 002.188-2.734c-.883-.39-1.329-.969-1.329-1.742 0-.79.27-1.637.81-2.528.546-.902 1.292-1.351 2.241-1.351.805 0 1.207.414 1.207 1.234 0 .645-.234 1.567-.699 2.766 1.715-.184 3.219-1.496 4.5-3.938l1.406-.062-1.433 3.969c-.598 1.675-.985 2.812-1.16 3.418-.172.605-.262 1.14-.262 1.609 0 .434.097.777.3 1.035.2.262.47.387.813.387.371 0 .727-.125 1.07-.375.34-.25 1.11-.938 2.293-2.07zm12.718-9.117a24.106 24.106 0 012.16-.453c.72-.122 1.153-.18 1.301-.18.102 0 .156.043.156.121 0 .16-.043.316-.129.48a4.117 4.117 0 00-.253 1.364c.011.539.324 1.27.94 2.203.622.93.935 1.793.935 2.594 0 1.578-.758 3.101-2.278 4.566-1.515 1.469-3.086 2.203-4.71 2.203a3.508 3.508 0 01-1.93-.555c-.579-.37-.868-.77-.868-1.191 0-.25.286-.719.864-1.41.57-.692.984-1.035 1.234-1.035.328 0 .621.422.883 1.27.262.847.707 1.269 1.336 1.269.633 0 1.226-.29 1.777-.88.555-.585.832-1.214.832-1.894.012-.648-.34-1.52-1.043-2.597-.71-1.086-1.176-1.993-1.402-2.727-1.203 1.93-2.723 3.91-4.567 5.938h-.359v-1.395c2.535-2.695 4.242-5.258 5.121-7.691zm15.567 2.007c.742-.898 1.437-1.566 2.093-1.996.66-.43 1.39-.644 2.196-.644 1.035 0 1.882.402 2.535 1.2.648.808.976 1.858.976 3.167 0 2.29-.785 4.39-2.359 6.3-1.57 1.911-3.29 2.864-5.137 2.864-.511 0-.922-.058-1.222-.168-.297-.117-.688-.375-1.176-.797-.746 3.274-1.227 5.89-1.446 7.86l-3.937.699c.734-4.836 1.668-9.73 2.805-14.692-1.368 1.793-2.285 2.899-2.762 3.317h-.36v-1.395c1.97-2.12 3.587-4.691 4.86-7.722l3.492-.633zm-1.801 8.32c.535.868 1.129 1.302 1.773 1.302 1.043 0 1.957-.793 2.758-2.38.8-1.585 1.195-3.132 1.195-4.64 0-.8-.164-1.441-.484-1.934-.324-.492-.742-.734-1.258-.734-.402 0-.824.18-1.262.543-.445.36-.78.785-1.007 1.262-.227.48-.48 1.324-.774 2.523zm22.254-1.21c-1.317 1.293-2.489 2.246-3.54 2.86-1.042.616-2.195.921-3.456.921-1.403 0-2.536-.45-3.399-1.348-.863-.906-1.297-2.093-1.297-3.558 0-2.2.762-4.184 2.282-5.961 1.52-1.774 3.203-2.664 5.054-2.664.961 0 1.735.25 2.309.746.578.492.87 1.144.87 1.953 0 2.14-2.265 3.875-6.804 5.211.414 2.031 1.492 3.05 3.235 3.05.68 0 1.328-.187 1.949-.55.613-.367 1.55-1.176 2.797-2.437zm-8.102-2.89c2.625-.739 3.938-2.11 3.938-4.106 0-.992-.36-1.485-1.075-1.485-.675 0-1.324.52-1.945 1.551-.613 1.04-.918 2.383-.918 4.04zm19.7 2.89c-1.325 1.305-2.536 2.258-3.637 2.867-1.102.61-2.25.914-3.446.914-1.347 0-2.457-.437-3.332-1.316-.875-.875-1.308-1.992-1.308-3.344 0-2.207.804-4.25 2.41-6.125 1.605-1.875 3.347-2.809 5.215-2.809.918 0 1.668.254 2.246.766.578.516.867 1.176.867 1.996 0 .285-.05.504-.164.652-.106.141-.313.286-.61.434l-1.8.852c-.215.101-.375.156-.48.156-.141 0-.22-.102-.22-.313 0-.082.036-.351.098-.812a9.47 9.47 0 00.094-.848c0-.453-.094-.82-.285-1.101-.192-.282-.45-.418-.766-.418-.758 0-1.445.562-2.078 1.683-.625 1.125-.937 2.406-.937 3.84 0 1.238.296 2.223.886 2.965.586.734 1.375 1.105 2.36 1.105.836 0 1.625-.238 2.367-.718.734-.477 1.578-1.211 2.52-2.203zm7.312-15.817c0 2.477-.914 3.715-2.742 3.715-.891 0-1.649-.27-2.278-.804a11.362 11.362 0 001.399-3.07c.816.507 1.472.761 1.965.761.554 0 1.113-.2 1.656-.602zm.316 15.817c-2.418 2.523-4.222 3.781-5.426 3.781-.66 0-1.218-.34-1.671-1.016-.457-.675-.684-1.523-.684-2.546 0-2.203.742-5.25 2.223-9.149l3.945-.82h.184l-1.551 4.848c-.64 2.007-.957 3.437-.957 4.296 0 .344.074.618.222.829.153.214.34.32.567.32.406 0 .808-.145 1.219-.434.406-.293 1.05-.922 1.93-1.886zm16.559 0c-1.653 1.57-2.84 2.598-3.555 3.066-.715.477-1.39.715-2.043.715-1.637 0-2.41-1.445-2.312-4.336-1.035 1.485-1.989 2.574-2.86 3.278-.875.703-1.773 1.058-2.707 1.058-.902 0-1.675-.43-2.312-1.281-.637-.856-.953-1.906-.953-3.145 0-1.554.422-3.039 1.273-4.445a10.569 10.569 0 013.281-3.418c1.332-.871 2.512-1.305 3.536-1.305 1.292 0 2.195.59 2.71 1.782l3.188-1.782h.875l-1.379 4.567c-.715 2.297-1.07 3.87-1.07 4.722 0 .903.32 1.352.949 1.352.402 0 .848-.219 1.328-.645a47.852 47.852 0 002.05-1.96zm-11.348.828c1.031 0 2.008-.883 2.918-2.648.914-1.762 1.371-3.387 1.371-4.875 0-.582-.129-1.032-.386-1.36-.258-.324-.606-.488-1.04-.488-1.03 0-2.011.879-2.933 2.637-.926 1.757-1.387 3.379-1.387 4.855 0 .559.14 1.012.414 1.36.27.343.621.519 1.043.519zm21.61-.828c-1.407 1.293-2.637 2.246-3.7 2.86-1.062.616-2.066.921-3.03.921-1.11 0-1.997-.43-2.677-1.285-.675-.86-1.015-2.012-1.015-3.457 0-2.176.472-4.781 1.41-7.82.933-3.04 2.078-5.844 3.418-8.41l3.941-1.454a.905.905 0 01.278-.062c.296 0 .546.215.738.656.191.438.285 1.031.285 1.777 0 2.106-.488 4.153-1.457 6.125-.969 1.977-2.488 4.086-4.55 6.329-.083 1.078-.126 1.82-.126 2.222 0 .903.164 1.617.5 2.14.328.528.766.794 1.317.794.558 0 1.152-.2 1.78-.602.63-.402 1.595-1.242 2.888-2.511zm-5.942-6.067a18.886 18.886 0 003.192-4.914c.816-1.808 1.222-3.37 1.222-4.671 0-.387-.058-.696-.168-.93-.117-.23-.261-.348-.433-.348-.383 0-.938.953-1.664 2.86-.73 1.906-1.446 4.574-2.149 8.003zm30.438 6.067c-1.489 1.48-2.621 2.48-3.407 3-.777.523-1.464.781-2.07.781-.73 0-1.312-.36-1.738-1.074-.43-.715-.653-1.762-.664-3.14-.848 1.378-1.77 2.425-2.766 3.14-.992.715-1.898 1.074-2.703 1.074-.879 0-1.652-.418-2.324-1.254-.672-.836-1.004-1.816-1.004-2.933 0-2.32.84-4.465 2.52-6.442 1.675-1.976 3.48-2.965 5.413-2.965.536 0 .958.078 1.262.239.305.156.64.433 1 .812l2.219-9.344c1.805-.402 3.016-.601 3.648-.601.203 0 .305.082.305.246 0 .113-.254 1.187-.766 3.219-2.054 8.132-3.082 13.047-3.082 14.746 0 .402.086.719.25.965.164.238.38.359.645.359.66 0 1.746-.867 3.262-2.605zm-11.203.828c1.011 0 1.953-.863 2.832-2.594.878-1.726 1.32-3.347 1.32-4.855 0-.613-.14-1.106-.414-1.473-.278-.363-.63-.547-1.074-.547-.961 0-1.891.906-2.793 2.711-.895 1.809-1.344 3.442-1.344 4.899 0 .574.133 1.027.398 1.363.258.332.618.496 1.075.496zm22.796-.828c-1.312 1.293-2.488 2.246-3.535 2.86-1.043.616-2.199.921-3.457.921-1.402 0-2.539-.45-3.398-1.348-.863-.906-1.297-2.093-1.297-3.558 0-2.2.762-4.184 2.281-5.961 1.52-1.774 3.203-2.664 5.055-2.664.957 0 1.73.25 2.308.746.579.492.868 1.144.868 1.953 0 2.14-2.266 3.875-6.801 5.211.41 2.031 1.492 3.05 3.234 3.05.676 0 1.328-.187 1.946-.55.617-.367 1.554-1.176 2.796-2.437zm-8.097-2.89c2.625-.739 3.937-2.11 3.937-4.106 0-.992-.36-1.485-1.074-1.485-.68 0-1.324.52-1.945 1.551-.614 1.04-.918 2.383-.918 4.04zm12.875-6.227a24.106 24.106 0 012.16-.453c.719-.122 1.152-.18 1.3-.18.102 0 .157.043.157.121 0 .16-.043.316-.129.48a4.117 4.117 0 00-.254 1.364c.012.539.324 1.27.942 2.203.62.93.933 1.793.933 2.594 0 1.578-.758 3.101-2.277 4.566-1.516 1.469-3.086 2.203-4.711 2.203a3.508 3.508 0 01-1.93-.555c-.574-.37-.867-.77-.867-1.191 0-.25.285-.719.863-1.41.57-.692.985-1.035 1.235-1.035.328 0 .625.422.882 1.27.258.847.704 1.269 1.336 1.269.633 0 1.227-.29 1.778-.88.554-.585.832-1.214.832-1.894.011-.648-.34-1.52-1.043-2.597-.711-1.086-1.176-1.993-1.403-2.727-1.203 1.93-2.722 3.91-4.566 5.938h-.36v-1.395c2.536-2.695 4.243-5.258 5.122-7.691zm15.426-6.7c0 2.477-.915 3.715-2.743 3.715-.886 0-1.644-.27-2.273-.804a11.355 11.355 0 001.394-3.07c.817.507 1.473.761 1.965.761.559 0 1.114-.2 1.657-.602zm.32 15.817c-2.422 2.523-4.227 3.781-5.43 3.781-.66 0-1.215-.34-1.672-1.016-.453-.675-.683-1.523-.683-2.546 0-2.203.742-5.25 2.226-9.149l3.942-.82h.187l-1.55 4.848c-.641 2.007-.962 3.437-.962 4.296 0 .344.075.618.223.829.156.214.34.32.567.32.41 0 .808-.145 1.218-.434.406-.293 1.055-.922 1.934-1.886zm15.223-.031a11.996 11.996 0 01-4.708 3.047c-.859 2.675-1.949 4.738-3.27 6.187-1.315 1.445-2.714 2.172-4.19 2.172-.81 0-1.461-.254-1.954-.762-.5-.504-.75-1.172-.75-1.996 0-1.11.497-2.101 1.485-2.98.984-.88 2.664-1.727 5.031-2.543l.664-3.059c-.988 1.117-1.848 1.93-2.57 2.457-.727.524-1.453.781-2.188.781-.86 0-1.558-.402-2.105-1.21-.547-.813-.824-1.86-.824-3.157 0-2.113.804-4.098 2.418-5.945 1.609-1.848 3.316-2.774 5.132-2.774 1 0 1.891.422 2.668 1.27a25.17 25.17 0 001.817-.762l1.11-.508h.35a27.56 27.56 0 00-.937 3.59l-1.465 7.813c1.395-.528 2.817-1.664 4.286-3.399zm-9.985.511c.735 0 1.387-.437 1.957-1.308.567-.871 1.012-1.977 1.324-3.317.317-1.332.47-2.265.47-2.785 0-.484-.114-.89-.36-1.199-.242-.32-.547-.477-.91-.477-1.094 0-2.051.739-2.872 2.223-.816 1.48-1.222 2.992-1.222 4.527 0 .715.148 1.286.441 1.704.297.417.688.632 1.172.632zm1.305 3.98c-3.34 1.196-5.016 2.583-5.016 4.157 0 .465.14.848.418 1.137.281.297.637.445 1.07.445.747 0 1.395-.473 1.946-1.414.543-.941 1.074-2.383 1.582-4.324zm23.894-4.46c-2.386 2.523-4.437 3.781-6.14 3.781-.692 0-1.25-.242-1.676-.73-.422-.485-.633-1.141-.633-1.957 0-1.114.453-2.813 1.363-5.106.489-1.234.73-2.015.73-2.351 0-.332-.132-.496-.39-.496-.14 0-.332.074-.57.218a6.967 6.967 0 00-.762.606c-.262.238-.547.531-.87.87-.274.29-.575.626-.9.993l-.866 1.012c-.383.472-.622.965-.715 1.484a23.977 23.977 0 00-.309 2.426c-.031.547-.047 1.289-.047 2.223l-3.422.808c-.11-1.398-.168-2.433-.168-3.117 0-1.664.196-3.242.582-4.727.387-1.488 1.004-3.164 1.864-5.02l3.78-.73c-.792 2.118-1.32 3.793-1.565 5.024 1.69-1.89 3.042-3.203 4.039-3.93 1-.73 1.882-1.094 2.664-1.094.523 0 .96.2 1.316.598.352.395.523.895.523 1.492 0 .988-.445 2.633-1.34 4.922-.613 1.574-.917 2.598-.917 3.066 0 .633.254.946.761.946.754 0 1.98-.996 3.668-2.988zm4.77-9.117a24.106 24.106 0 012.16-.453c.723-.122 1.156-.18 1.305-.18.097 0 .152.043.152.121 0 .16-.043.316-.129.48a4.117 4.117 0 00-.254 1.364c.012.539.324 1.27.946 2.203.617.93.93 1.793.93 2.594 0 1.578-.759 3.101-2.278 4.566-1.512 1.469-3.086 2.203-4.711 2.203a3.505 3.505 0 01-1.926-.555c-.578-.37-.87-.77-.87-1.191 0-.25.284-.719.862-1.41.575-.692.985-1.035 1.235-1.035.328 0 .625.422.883 1.27.261.847.707 1.269 1.336 1.269.636 0 1.226-.29 1.777-.88.558-.585.832-1.214.832-1.894.012-.648-.336-1.52-1.043-2.597-.707-1.086-1.176-1.993-1.402-2.727-1.204 1.93-2.723 3.91-4.563 5.938h-.36v-1.395c2.536-2.695 4.239-5.258 5.118-7.691"/></svg>