<svg version="1.1" id="Layer_1" xmlns="http://www.w3.org/2000/svg" x="0" y="0" viewBox="0 0 84.7 43.8" xml:space="preserve"><style>.st0{fill:#efefef}</style><g id="XMLID_2_"><g id="XMLID_3_"><path id="XMLID_4_" class="st0" d="M22.9 8.3c-1.1 0-1.8-.6-2.3-1.7-.2-.5-.5-.8-.7-.9-.2-.1-.6-.1-1.4-.1-1.5 0-3.2 1.1-5.1 3.4-2.7 3.2-4.1 6.2-4.1 9 0 1.3.4 2.4 1.3 3.3s1.9 1.4 3.1 1.4c1.2 0 2.3-.3 3.5-.9.4-.2 1.3-.8 2.7-1.7.9-.6 1.6-.9 2.1-.9.7 0 1.3.3 1.8.8s.7 1 .7 1.7-.3 1.3-.9 1.8c-3.2 2.7-6.5 4.1-9.8 4.1-2.6 0-4.9-1-6.7-2.9-1.7-1.9-2.6-4-2.6-6.5 0-3.9 1.7-7.9 5.2-12C12.6 2.7 15.6 1 18.6 1c.5 0 1 0 1.4.1s.7-.2 1-.1c.5-.5 1.1-.8 1.9-.8 1.2 0 1.9.7 2.2 2.1.2 1 .3 2.1.3 3.4 0 .6-.2 1.1-.5 1.6-.5.7-1.1 1-2 1z"/><path id="XMLID_6_" class="st0" d="M45.6 27.2c-.6 0-1.2-.2-1.7-.7-3.6-3.3-7.5-5.6-11.7-6.9.1 3.4.2 5.3.2 5.7 0 .7-.2 1.2-.7 1.7-.5.5-1.1.7-1.8.7s-1.3-.2-1.8-.7-.7-1-.7-1.7v-3.9V3.3c0-.8.2-1.5.7-2.1.6-.8 1.4-1.2 2.5-1.1 2.9.1 4.4.2 4.4.2 1.6.2 3 .6 4.2 1.2 5 2.5 7.5 5.6 7.5 9.4 0 1.5-.5 2.9-1.6 4.1s-2.6 2.2-4.7 3c3.1 1.7 5.4 3.5 7 5.3.4.5.6 1 .6 1.6 0 .7-.2 1.2-.7 1.7s-1 .6-1.7.6zM34.3 5.1c-.1 0-.8-.1-2.1-.1v9.3h.8c2.9 0 5-.4 6.4-1.1.6-.3 1.1-.7 1.6-1.2s.7-.9.7-1.1c0-1.3-.8-2.6-2.5-3.8-1.5-1.2-3.1-1.8-4.9-2z"/><path id="XMLID_9_" class="st0" d="M58.1 13.1c-.5 1.9-1.3 4.8-2.2 8.6-.2 1.3-.4 2.6-.7 4-.5 1.7-1.4 2.5-2.7 2.5-.8 0-1.4-.3-1.9-.8-.4-.5-.6-1-.6-1.7 0-1.9.4-4.2 1.2-6.9 1.2-4.1 1.9-6.4 2-6.8.3-1.8.7-3.6 1-5.4.5-2.5 1.1-4.1 1.7-5S57.3.4 58.2.4c1.1 0 1.9.5 2.4 1.6.5 1 1 3.1 1.5 6.3.5 3.1 1.3 6.4 2.3 9.9 1.3-3.5 2.6-7.3 3.7-11.5l1-4C69.9.9 70.8 0 72.2 0c1.2 0 2.2 1 2.8 3 .3.8.5 2.2.8 4.4.7 5 1.5 9.3 2.6 12.8 1 3.6 1.6 5.6 1.6 5.9 0 .7-.3 1.3-.8 1.7-.5.4-1.1.6-1.7.6-1.3 0-2.2-.9-2.8-2.7l-1-4.3c-.6-2.1-1.2-5.1-1.8-9.1-.5 1.6-1.4 4-2.6 7.4L68.1 23c-.4 1.3-.9 2.3-1.4 3.1-.6 1.1-1.5 1.6-2.6 1.6s-1.9-.7-2.5-2l-1-3.3c-.9-2.8-1.7-6-2.5-9.3z"/></g><g id="XMLID_1_"><path id="XMLID_11_" class="st0" d="M2.3 41.2c.1 0 .2.1.3.2.1.2.2.3.3.4s.2.1.4.2.3 0 .5 0c.5 0 1-.1 1.4-.4s.6-.6.6-.9c0-.3-.1-.5-.4-.6s-.7-.3-1.1-.3c-.5 0-.8-.1-1.1-.3s-.4-.4-.4-.7c0-.5.3-1 .9-1.4s1.2-.6 1.8-.6c.3 0 .6.1.9.2s.5.2.5.4c0 .1 0 .2-.1.2s-.2.1-.3.1c-.1 0-.3 0-.5-.1-.3-.1-.4-.1-.5-.1-.5 0-.9.1-1.2.3s-.5.5-.5.7c0 .1.1.3.3.3.1.2.4.2.9.3.5 0 .9.2 1.2.4s.4.6.4 1c0 .6-.3 1.2-.9 1.6s-1.3.6-2.1.6c-.5 0-.9-.1-1.3-.3s-.4-.4-.4-.7c0-.2 0-.3.1-.4.1-.1.2-.1.3-.1z"/><path id="XMLID_13_" class="st0" d="M9.3 39.2c0 .1-.1.3-.1.4-.2.7-.3 1.3-.3 1.7 0 .4.1.7.3.7.2 0 .4-.1.5-.2.1-.2.3-.3.4-.3.1 0 .2 0 .2.1s.1.1.1.3c0 .2-.1.4-.4.6s-.6.2-.9.2c-.7 0-1-.4-1-1.3 0-.5.1-1 .3-1.7.1-.2.1-.3.2-.5-.6 0-.9-.1-1-.1s-.1-.2-.1-.3c0-.1 0-.2.1-.3s.2-.1.3-.1l.8.1v-.2-.3l.1-.5c0-.1.1-.2.1-.3s.2-.2.3-.2c.2 0 .3.2.3.5v.4l-.1.5c.3 0 .5-.1.6-.1.3 0 .5 0 .6.1s.2.2.2.3c0 .1 0 .2-.1.3s-.2.1-.3.1H10c-.3.1-.5.1-.7.1z"/><path id="XMLID_15_" class="st0" d="M13.6 42.3c-.6.3-1 .4-1.2.4-1 0-1.5-.5-1.5-1.4 0-.9.3-1.6.8-2.1s1.1-.8 1.8-.8c.3 0 .5.1.8.2s.4.3.4.5c0 .1 0 .2-.1.3-.1.1-.1.4-.2.9s-.1.8-.1 1c0 .3.1.6.2 1.1v.1c-.1.2-.2.4-.4.4l-.2-.2c-.1-.1-.3-.3-.3-.4zm.3-3c-.2-.1-.3-.1-.4-.1-.4 0-.8.2-1.2.6s-.6.9-.6 1.5.2.9.7.9c.4 0 .8-.1 1.1-.4.1-1.3.2-2.1.4-2.5z"/><path id="XMLID_18_" class="st0" d="M17.4 41.9c-.5.8-.9 1.4-1.1 1.8l-.3.8c-.1.2-.2.3-.4.3-.1 0-.2 0-.2-.1s-.1-.1-.1-.2c0-.2.4-1 1.2-2.3l-1-2.7-.1-.3c0-.1-.1-.2-.1-.2 0-.1 0-.2.2-.3s.2-.1.3-.1c.1 0 .2 0 .2.1.1.1.2.4.4.9s.4 1.1.6 1.8l.8-1.3c.1-.2.3-.5.5-.8s.4-.5.4-.5.1-.1.2-.1.2 0 .2.1.1.1.1.2 0 .2-.1.2l-1.7 2.7z"/><path id="XMLID_20_" class="st0" d="M26.4 39.9c-.5 0-1 .1-1.7.2l-1.7.3c0 .2-.1.5-.2 1s-.2.8-.2 1c0 .1-.1.2-.2.3s-.2.1-.3.1c-.2 0-.3-.1-.3-.3 0-.1.1-.6.3-1.3.2-.7.3-1.4.4-1.9l.1-.4v-.3c0-.1 0-.2.1-.4.2-.8.3-1.3.3-1.5 0-.1.1-.2.2-.3s.2-.1.3-.1c.2 0 .3.1.3.3 0 .1-.1.4-.2 1-.1.5-.2.8-.2.9l-.1 1 1.7-.3c.7-.1 1.3-.2 1.7-.2.1-.4.2-1 .3-1.7 0-.2.1-.4.2-.7s.2-.3.4-.3c.1 0 .2 0 .2.1s.1.1.1.2 0 .1-.1.2-.1.3-.1.6c-.1.5-.2 1.1-.3 1.7-.1.5-.2.9-.2 1.1s-.1.5-.1 1-.1.8-.1.9-.1.2-.2.3-.2.1-.3.1c-.1 0-.2 0-.2-.1s-.1-.1-.1-.2l.1-.9c.1-.5.1-.9.2-1.2-.1 0-.1-.1-.1-.2z"/><path id="XMLID_22_" class="st0" d="M27.9 41.2c0-.7.2-1.3.7-1.9s1-.8 1.7-.8c.4 0 .7.1.9.4s.3.6.3 1.1c0 .7-.2 1.4-.6 1.9s-.9.8-1.6.8c-.4 0-.8-.1-1-.4s-.4-.7-.4-1.1zm2.1-2c-.4 0-.7.2-1 .6s-.4.8-.4 1.2c0 .3.1.5.2.6s.3.2.5.2c.3 0 .6-.2.9-.5s.4-.8.4-1.4c.1-.4-.1-.7-.6-.7z"/><path id="XMLID_25_" class="st0" d="M35.4 39.8c0 .3-.1.5-.1.7l-.1 1c0 .5-.1.9-.1 1s-.1.2-.2.3-.1.2-.2.2c-.2 0-.3-.1-.3-.3v-.3c0-.2.1-.6.1-1.1 0-.6.1-1.1.1-1.4v-.3-.3c-.2.1-.4.2-.6.4l-.6.5-.2.3c0 .1-.1.3-.2.7-.1.5-.2.8-.2 1v.4c0 .1-.1.1-.2.2s-.2.1-.3.1c-.2 0-.3-.2-.3-.5 0-.2.1-.6.2-1.2.1-.4.2-.7.2-.8v-.6c.1-.6.1-1.1.2-1.2s.2-.3.4-.3c.1 0 .2 0 .2.1s.1.2.1.3c0 0 0 .2-.1.4v.1l-.1.4c.2-.3.4-.5.7-.8s.5-.3.7-.3c.4 0 .7.2.7.6.3-.4.8-.6 1.3-.6s.8.3.8.9v1.8c0 .9-.1 1.4-.1 1.4 0 .1-.1.2-.2.2s-.2.1-.3.1c-.2 0-.3-.1-.3-.3 0-.4 0-.8.1-1.2l.1-1.2c0-.2 0-.3-.1-.6s-.1-.3-.2-.3-.3.1-.5.2-.3.2-.4.3z"/><path id="XMLID_27_" class="st0" d="M38.9 41.3c.2.4.6.6 1.2.6.2 0 .4 0 .7-.1s.5-.2.6-.3c.1-.1.2-.2.3-.2.1 0 .2 0 .2.1s.1.1.1.2c0 .3-.2.5-.7.7s-.9.3-1.3.3c-.6 0-1-.1-1.3-.4s-.5-.6-.5-1.1c0-.6.2-1.3.7-1.9s1-.9 1.7-.9c.5 0 .8.1 1.1.2s.3.5.3.8c0 .2-.1.4-.2.6s-.3.3-.5.4-.4.2-.7.3l-1.7.7zm.1-.7l1.3-.6c.5-.2.9-.4 1.1-.6-.2-.2-.5-.3-.9-.3-.7 0-1.2.5-1.5 1.5z"/><path id="XMLID_30_" class="st0" d="M42.8 43.6c0-.1.1-.3.4-.8s.4-.7.5-.7.2-.1.2-.1c.1 0 .2 0 .2.1s.1.1.1.2c0 0 0 .1-.1.3s-.2.4-.4.7-.3.5-.4.6-.1.1-.2.1-.1 0-.2-.1-.1-.3-.1-.3z"/><path id="XMLID_32_" class="st0" d="M47.8 41.2c.1 0 .2.1.3.2.1.2.2.3.3.4s.2.1.4.2.4.1.6.1c.5 0 1-.1 1.4-.4s.6-.6.6-.9c0-.3-.1-.5-.4-.6s-.7-.3-1.1-.3c-.5 0-.8-.1-1.1-.3s-.4-.4-.4-.7c0-.5.3-1 .9-1.4s1.2-.6 1.8-.6c.3 0 .6.1.9.2s.5.2.5.4c0 .1 0 .2-.1.2s-.2.1-.3.1c-.1 0-.3 0-.5-.1-.3-.1-.4-.1-.5-.1-.5 0-.9.1-1.2.3s-.5.5-.5.7c0 .1.1.3.3.3s.5.1 1.1.2c.5 0 .9.2 1.2.4s.4.6.4 1c0 .6-.3 1.2-.9 1.6s-1.3.6-2.1.6c-.5 0-.9-.1-1.3-.3s-.6-.5-.6-.8c0-.2 0-.3.1-.4s.1 0 .2 0z"/><path id="XMLID_34_" class="st0" d="M54.8 39.2c0 .1-.1.3-.1.4-.2.7-.3 1.3-.3 1.7 0 .4.1.7.3.7.2 0 .4-.1.5-.2.1-.2.3-.3.4-.3.1 0 .2 0 .2.1s.1.1.1.3c0 .2-.1.4-.4.6s-.6.2-.9.2c-.7 0-1-.4-1-1.3 0-.5.1-1 .3-1.7.1-.2.1-.3.2-.5-.6 0-.9-.1-1-.1s-.1-.2-.1-.3c0-.1 0-.2.1-.3s.2-.1.3-.1l.8.1v-.2-.3l.1-.5c0-.1.1-.2.1-.3s.2-.1.3-.1c.2 0 .3.2.3.5v.8c.3 0 .5-.1.6-.1.3 0 .5 0 .6.1s.2.2.2.3c0 .1 0 .2-.1.3s-.2.1-.3.1h-.4c-.4.1-.6.1-.8.1z"/><path id="XMLID_36_" class="st0" d="M59.1 42.3c-.6.3-1 .4-1.2.4-1 0-1.5-.5-1.5-1.4 0-.9.3-1.6.8-2.1s1.1-.8 1.8-.8c.3 0 .5.1.8.2s.4.3.4.5c0 .1 0 .2-.1.3-.1.1-.1.4-.2.9s-.1.8-.1 1c0 .3.1.6.2 1.1v.1c-.1.2-.2.4-.4.4l-.2-.2c-.1-.1-.3-.3-.3-.4zm.3-3c-.2-.1-.3-.1-.4-.1-.4 0-.8.2-1.2.6s-.6.9-.6 1.5.2.9.7.9c.4 0 .8-.1 1.1-.4.1-1.3.2-2.1.4-2.5z"/><path id="XMLID_39_" class="st0" d="M63 41.9c-.5.8-.9 1.4-1.1 1.8l-.4.8c-.1.2-.2.3-.4.3-.1 0-.2 0-.2-.1s-.1-.1-.1-.2c0-.2.4-1 1.2-2.3l-1-2.7-.1-.3c0-.1-.1-.2-.1-.2 0-.1 0-.2.2-.3s.2-.1.3-.1c.1 0 .2 0 .2.1s.2.4.4.9.4 1.1.6 1.8l.8-1.3c.1-.2.3-.5.5-.8.2-.3.4-.5.4-.5s.1-.1.2-.1.2 0 .2.1.1.1.1.2 0 .2-.1.2L63 41.9z"/><path id="XMLID_41_" class="st0" d="M67.8 41.2c.1 0 .2.1.3.2.1.2.2.3.3.4s.2.1.4.2.4.1.6.1c.5 0 1-.1 1.4-.4s.6-.6.6-.9c0-.3-.1-.5-.4-.6s-.7-.3-1.1-.3c-.5 0-.8-.1-1.1-.3s-.4-.4-.4-.7c0-.5.3-1 .9-1.4s1.2-.6 1.8-.6c.3 0 .6.1.9.2s.5.2.5.4c0 .1 0 .2-.1.2s-.2.1-.3.1c-.1 0-.3 0-.5-.1-.3-.1-.4-.1-.5-.1-.5 0-.9.1-1.2.3s-.5.5-.5.7c0 .1.1.3.3.3s.5.1 1.1.2c.5 0 .9.2 1.2.4s.4.6.4 1c0 .6-.3 1.2-.9 1.6s-1.3.6-2.1.6c-.5 0-.9-.1-1.3-.3s-.6-.5-.6-.8c0-.2 0-.3.1-.4s.1 0 .2 0z"/><path id="XMLID_43_" class="st0" d="M75.3 42.3c-.6.3-1 .4-1.2.4-1 0-1.5-.5-1.5-1.4 0-.9.3-1.6.8-2.1s1.1-.8 1.8-.8c.3 0 .5.1.8.2s.4.3.4.5c0 .1 0 .2-.1.3-.1.1-.1.4-.2.9s-.1.7-.1.9c0 .3.1.6.2 1.1v.1c-.1.2-.2.4-.4.4l-.2-.2c-.1-.1-.3-.2-.3-.3zm.3-3c-.2-.1-.3-.1-.4-.1-.4 0-.8.2-1.2.6s-.6.9-.6 1.5.2.9.7.9c.4 0 .8-.1 1.1-.4.1-1.3.2-2.1.4-2.5z"/><path id="XMLID_46_" class="st0" d="M80.4 37c-.3 0-.6.1-.8.3s-.4.5-.5 1l-.1.2h.9c.4 0 .6.1.6.4 0 .2-.2.3-.4.3H80h-1.1l-.2.9v.3c0 .1 0 .3-.1.4 0 .2 0 .3-.1.4s0 .2 0 .3c-.1.5-.2.9-.3 1.2-.1.2-.2.3-.4.3h-.1s-.1 0-.1-.1-.1-.1-.1-.1v-.1c.1-.2.1-.3.2-.5s.1-.4.1-.6l.2-1.1.2-1.1H77.6c-.1 0-.2 0-.3-.1s-.1-.2 0-.3c0-.3.3-.4.7-.4h.4c0-.1 0-.2.1-.3s.1-.2.1-.3c.2-.6.4-1 .6-1.3.3-.3.8-.5 1.4-.5.4 0 .5.1.5.4-.1.3-.3.4-.7.4z"/><path id="XMLID_48_" class="st0" d="M81.6 41.3c.2.4.6.6 1.2.6.2 0 .4 0 .7-.1s.5-.2.6-.3c.1-.1.2-.2.3-.2.1 0 .2 0 .2.1s.1.1.1.2c0 .3-.2.5-.7.7s-.9.3-1.3.3c-.6 0-1-.1-1.3-.4s-.5-.6-.5-1.1c0-.6.2-1.3.7-1.9s1-.9 1.7-.9c.5 0 .8.1 1.1.2s.4.4.4.7c0 .2-.1.4-.2.6s-.3.3-.5.4-.4.2-.7.3l-1.8.8zm0-.7l1.3-.6c.5-.2.9-.4 1.1-.6-.2-.2-.5-.3-.9-.3-.6 0-1.1.5-1.5 1.5z"/></g></g></svg>